<svg version="1.1" id="Layer_1" xmlns="http://www.w3.org/2000/svg" x="0" y="0" width="534.6" height="64.2" xml:space="preserve"><style>.st0{fill:#fff}</style><path class="st0" d="M14.3 18.6l.2.1v9.5h.2c1.9-5.3 6.7-9.7 13.7-9.7 9.1 0 11.8 4.5 11.8 13.1v17.1c0 5.2.3 10.5 1.6 14.6H27.2c1.2-3.8 1.4-8.5 1.4-14.1V32.9c0-4-1.6-5.8-5.9-5.8-3.3 0-5.8.9-7.7 2.6v19.5c0 5.6.2 10.3 1.4 14.1H1.7c1.3-4 1.6-9.4 1.6-14.6V32.9c0-4.3-1.5-8.1-3.3-10.1l14.3-4.2zM62.4 18.5C73.7 18.5 78 23 78 32.2v19.4c0 3.5 1.4 4.5 4.1 4.5.5 0 1.9-.2 2.3-.6-.2 1.3-.4 2-.7 2.8-1.3 3.6-3.6 6-8.4 6-5.6 0-8.4-3.9-8.6-8h-.2c-1.9 5.6-5.5 8-11.3 8-7 0-11.6-4.2-11.6-10.9 0-7 6.3-10 12.9-12.6 6.2-2.5 9.6-4.3 9.6-8.7v-.9c0-4.9-1.5-7.5-6.2-7.5-2.9 0-4 1.3-4.6 4.1-.9 4.2-2.6 5.8-5.4 5.8-2.5 0-4.8-1.7-4.8-4.8.1-6.1 8.5-10.3 17.3-10.3zm3.8 36.3V39c-.9 1.3-2 2.1-5.3 3.6-4.1 2-5.6 4.2-5.6 8.9 0 3.8 2.1 6.2 5.5 6.2 3.3 0 4.5-1.2 5.4-2.9zM109.8 58.5c-1.5 3.5-5.3 5.8-10.5 5.8-9 0-12.5-4.5-12.5-12.8V25.6h-4.3v-.3L98.2 9.2l.2.1v10.2h11.2l-1.1 6.2h-10v24c0 4.6 1.9 6.4 6.1 6.4 3.2 0 4.9-.5 6.2-1.2-.3 1.4-.5 2.3-1 3.6zM124.9 19.1v30.3c0 4.5 1.8 7 6.2 7 3.7 0 6.5-1.2 8.1-3.3V32.6c0-4.5-.5-8.3-1.9-12.1l13.5-1.4v31c0 6.8.7 9.9 1.8 13.1h-13.1v-8.7h-.2c-1.9 5.6-5.5 9.6-13 9.6-9.6 0-13-5.8-13-14.3V32.6c0-4.5-.4-8.3-1.9-12.1l13.5-1.4zM169.4 29.7c1.9-8.1 5.7-11.3 10.6-11.3 4.5 0 6.8 2.3 6.8 6.1 0 3.4-1.9 6.1-5.4 6.1-2 0-3.2-.9-4.1-1.8-1.1-.9-1.7-1.9-2.7-1.9-2.3 0-4.9 3.9-4.9 10.6v10.9c0 5.4.4 10.8 1.5 14.8h-14.7c1.3-4 1.6-9.4 1.6-14.6V32.9c0-4.3-1.5-8.1-3.3-10.1l14.3-4.1.2.1v11h.1v-.1zM206.1 64.2c-11.2 0-20.5-7.5-20.5-21.7 0-14.5 8.8-24.1 20.7-24.1 11.3 0 16.6 7.2 16.6 20.7h-25.8v1.3c0 10.9 5.7 15.2 13.4 15.2 7 0 10.1-2.8 12.1-4.9l.2.7c-1.7 6.7-6.9 12.8-16.7 12.8zm-8.7-28.1l14.7-1.3c-.2-7-1.2-11.1-6.1-11.1-5 0-7.9 4-8.6 12.4zM248.2 18.6l.2.1v9.5h.2c1.9-5.3 6.2-9.7 13.2-9.7 7.9 0 10.6 3.5 11.2 9.7h.1c1.9-5.3 6.2-9.7 13.1-9.7 9.1 0 11.4 4.5 11.4 13.1v17.1c0 5.2.3 10.5 1.6 14.6h-14.7c1.2-3.8 1.4-8.5 1.4-14.1V32.9c0-4-1.2-5.8-5.5-5.8-3.3 0-5.3.6-7.2 2.6v19c0 5.2.3 10.5 1.6 14.6h-14.7c1.2-3.8 1.4-8.5 1.4-14.1V32.9c0-4-1.2-5.8-5.5-5.8-3.3 0-5.1.6-7.2 2.6v19.5c0 5.6.2 10.3 1.4 14.1h-14.7c1.3-4 1.6-9.4 1.6-14.6V32.9c0-4.3-1.5-8.1-3.3-10.1l14.4-4.2zM322.4 64.2c-11.2 0-20.5-7.5-20.5-21.7 0-14.5 8.8-24.1 20.7-24.1 11.3 0 16.6 7.2 16.6 20.7h-25.8v1.3c0 10.9 5.7 15.2 13.4 15.2 7 0 10.1-2.8 12.1-4.9l.2.7c-1.7 6.7-7 12.8-16.7 12.8zm-8.8-28.1l14.7-1.3c-.2-7-1.2-11.1-6.1-11.1-4.9 0-7.8 4-8.6 12.4zM367.6 58.5c-1.5 3.5-5.3 5.8-10.5 5.8-9 0-12.5-4.5-12.5-12.8V25.6h-4.3v-.3L356 9.2l.2.1v10.2h11.2l-1.1 6.2h-10v24c0 4.6 1.9 6.4 6.1 6.4 3.2 0 4.9-.5 6.2-1.2-.3 1.4-.5 2.3-1 3.6zM383 28h.2c1.9-5.3 6.3-9.6 13.3-9.6 9.1 0 11.8 4.5 11.8 13.1v17.1c0 5.2.3 10.5 1.6 14.6h-14.7c1.2-3.8 1.4-8.5 1.4-14.1V32.9c0-4-1.6-5.8-5.9-5.8-3.3 0-5.9.9-7.7 2.6v19.5c0 5.6.2 10.3 1.4 14.1h-14.7c1.3-4 1.6-9.4 1.6-14.6V14.8c0-5.6-1.4-8.7-3.1-10.9l14.9-4 .2.1-.3 11.7V28zM455.5 41.3c0 14.1-10.2 22.9-21.1 22.9-11.1 0-21.8-8.3-21.8-22.8 0-14.1 10.2-22.9 21.1-22.9 11.1 0 21.8 8.3 21.8 22.8zm-12.7.2c0-14.3-3.4-17.7-9.1-17.7-5.3 0-8.4 3.9-8.4 17.3 0 14.3 3.4 17.7 9.1 17.7 5.3.1 8.4-3.8 8.4-17.3zM484.5 4l14.9-4 .2.1-.3 11.6v37.1c0 6.5.6 11.1 1.8 14.5h-13.2v-7.5h-.2c-1.3 3.7-4.9 8.4-11.7 8.4-9.3 0-17.4-7.1-17.4-21.7 0-16.8 11.7-24.1 21.3-24.1 3.6 0 6.2.6 7.8 1.6v-6c-.2-5.6-1.5-7.9-3.2-10zm3 25.8c-.4-3.8-2.8-6.1-7.7-6.1-5.7 0-9.1 5.3-9.1 16.3s3.7 16.9 9.6 16.9c3.6 0 6.2-1.3 7.2-3.5V29.8zM531.1 20.6l.4 9.2h-.2c-3.2-3.5-6.5-6.1-11.7-6.1-3.5 0-5.8 1.3-5.8 4.5s1.6 4.5 8.7 7.5c7.5 3.1 12.1 6.6 12.1 13.8 0 7.5-4 14.8-16.3 14.8-5.2 0-10.1-1.1-13.8-3.1l-.5-11.1h.4c3.5 4.5 8.5 8.9 13.8 8.9s6.6-1.9 6.6-5.4c0-3.9-2-4.9-8.8-7.9-7.1-3-11.9-6.4-11.9-13.8 0-8.4 6.6-13.4 15.2-13.4 5.8 0 9.1.9 11.8 2.1z"/></svg>